<svg width="24" height="24" viewBox="0 0 24 24" fill="none" xmlns="http://www.w3.org/2000/svg">
    <path d="M2.375 9.875C1.615 9.875 1 10.49 1 11.25V12.75C1 13.51 1.615 14.125 2.375 14.125C3.135 14.125 3.75 13.51 3.75 12.75V11.25C3.75 10.49 3.135 9.875 2.375 9.875Z" fill="#0066D9"/>
    <path d="M21.625 9.875C20.865 9.875 20.25 10.49 20.25 11.25V12.75C20.25 13.51 20.865 14.125 21.625 14.125C22.385 14.125 23 13.51 23 12.75V11.25C23 10.49 22.385 9.875 21.625 9.875Z" fill="#4285F4"/>
    <path d="M7.125 14.375C6.365 14.375 5.75 14.99 5.75 15.75V17.25C5.75 18.01 6.365 18.625 7.125 18.625C7.885 18.625 8.5 18.01 8.5 17.25V15.75C8.5 14.99 7.885 14.375 7.125 14.375Z" fill="#EA4335"/>
    <path d="M7.125 5.375C6.365 5.375 5.75 5.99 5.75 6.75V11.6562H5.75125C5.76875 12.4012 6.37625 13 7.125 13C7.87375 13 8.48125 12.4012 8.49875 11.6562H8.5V6.75C8.5 5.99 7.885 5.375 7.125 5.375Z" fill="#EA4335"/>
    <path d="M16.875 5.375C16.115 5.375 15.5 5.99 15.5 6.75V8.25C15.5 9.01 16.115 9.625 16.875 9.625C17.635 9.625 18.25 9.01 18.25 8.25V6.75C18.25 5.99 17.635 5.375 16.875 5.375Z" fill="#34A853"/>
    <path d="M12 1C11.24 1 10.625 1.615 10.625 2.375V3.875C10.625 4.635 11.24 5.25 12 5.25C12.76 5.25 13.375 4.635 13.375 3.875V2.375C13.375 1.615 12.76 1 12 1Z" fill="#FAB908"/>
    <path d="M12 18.75C11.24 18.75 10.625 19.365 10.625 20.125V21.625C10.625 22.385 11.24 23 12 23C12.76 23 13.375 22.385 13.375 21.625V20.125C13.375 19.365 12.76 18.75 12 18.75Z" fill="#FAB908"/>
    <path d="M16.875 11C16.115 11 15.5 11.615 15.5 12.375V17.25C15.5 18.01 16.115 18.625 16.875 18.625C17.635 18.625 18.25 18.01 18.25 17.25V12.375C18.25 11.615 17.635 11 16.875 11Z" fill="#34A853"/>
    <path d="M13.375 8C13.375 7.24 12.76 6.625 12 6.625C11.24 6.625 10.625 7.24 10.625 8V11.3337V12.6675V16C10.625 16.76 11.24 17.375 12 17.375C12.76 17.375 13.375 16.76 13.375 16V12.6663V11.3337V8Z" fill="#FAB908"/>
    </svg>
